# Alias OBJ Model File
# Exported from SketchUp, (c) 2000-2006 Google, Inc.
# File units = inches

mtllib Coin.mtl

g Mesh1 Mesh2_cylinder01_1_skp1B9_1_Model Model

usemtl Material2
v 0.75 0.0375 -2
vt 1.73774 0.0375
vn 0.965926 0 -0.258819
v 0.75 0 -2
vt 1.73774 0
v 0.649519 -2.56714e-008 -2.375
vt 2.12597 -2.56714e-008
f 1/1/1 2/2/1 3/3/1

vt 2.12597 0.0375
vn 0.965926 -1.98591e-016 0.258819
v 0.649519 0.0375 -1.625
vt 1.73774 0.0375
vt 2.12597 4.10699e-017
f 1/4/2 4/5/2 2/6/2

v 0.649519 0.075 -1.625
vt 1.73774 0.075
vn 0.965926 0 0.258819
vt 1.73774 0.0375
vt 2.12597 0.0375
f 5/7/3 4/8/3 1/9/3

vt 1.60833 0.075
vn 0.707108 -5.42559e-016 0.707105
v 0.375 0.075 -1.35048
vt 1.2201 0.075
vt 1.60833 0.0375
f 5/10/4 6/11/4 4/12/4

v 0.375 0.1125 -1.35048
vt 1.2201 0.1125
vn 0.707108 0 0.707105
vt 1.2201 0.075
vt 1.60833 0.075
f 7/13/5 6/14/5 5/15/5

vt 0.711749 0.1125
vn 0.258817 1.98591e-016 0.965926
v 0 0.1125 -1.25
vt 0.323521 0.1125
vt 0.711749 0.075
f 7/16/6 8/17/6 6/18/6

v 0 0.15 -1.25
vt 0.323521 0.15
vn 0.258817 0 0.965926
vt 0.323521 0.1125
vt 0.711749 0.1125
f 9/19/7 8/20/7 7/21/7

vt -0.323521 0.15
vn -0.258817 0 0.965926
v -0.375 0.15 -1.35048
vt -0.711749 0.15
vt -0.323521 0.1125
f 9/22/8 10/23/8 8/24/8

v -0.375 0.1875 -1.35048
vt -0.711749 0.1875
vn -0.258817 -1.98591e-016 0.965926
vt -0.711749 0.15
vt -0.323521 0.15
f 11/25/9 10/26/9 9/27/9

vt -1.2201 0.1875
vn -0.707108 -5.42559e-016 0.707105
v -0.649519 0.1875 -1.625
vt -1.60833 0.1875
vt -1.2201 0.15
f 11/28/10 12/29/10 10/30/10

v -0.649519 0.225 -1.625
vt -1.60833 0.225
vn -0.707108 -5.42559e-016 0.707105
f 13/31/11 12/29/11 11/28/11

vt -1.73774 0.225
vn -0.965926 -1.98591e-016 0.258819
v -0.75 0.225 -2
vt -2.12597 0.225
vt -1.73774 0.1875
f 13/32/12 14/33/12 12/34/12

v -0.75 0.2625 -2
vt -2.12597 0.2625
f 15/35/12 14/33/12 13/32/12

vt -1.73774 0.2625
vn -0.965926 1.98591e-016 -0.258819
v -0.649519 0.2625 -2.375
vt -2.12597 0.2625
vt -1.73774 0.225
f 15/36/13 16/37/13 14/38/13

v -0.649519 0.3 -2.375
vt -2.12597 0.3
vn -0.965926 1.98591e-016 -0.258819
f 17/39/14 16/37/14 15/36/14

vt -1.2201 0.3
vn -0.707108 -5.42559e-016 -0.707105
v -0.375 0.3 -2.64952
vt -1.60833 0.3
vt -1.2201 0.2625
f 17/40/15 18/41/15 16/42/15

vt -0.375 2.64952
vn 0 1 -0
vt -0.649519 2.375
v 0.649519 0.3 -1.625
vt 0.649519 1.625
f 18/43/16 17/44/16 19/45/16

v -0.75 0.3 -2
vt -0.75 2
f 17/44/16 20/46/16 19/45/16

vt -1.73774 0.3
f 20/47/14 17/39/14 15/36/14

vt -2.12597 0.3
vn -0.965926 1.98591e-016 0.258819
vt -2.12597 0.2625
v -0.649519 0.2625 -1.625
vt -1.73774 0.2625
f 20/48/17 15/49/17 21/50/17

vt -1.73774 0.2625
vn -0.965926 1.98591e-016 0.258819
f 21/51/18 15/49/18 13/32/18

vt -1.60833 0.2625
vn -0.707108 -5.42559e-016 0.707105
vt -1.60833 0.225
v -0.375 0.225 -1.35048
vt -1.2201 0.225
f 21/52/19 13/53/19 22/54/19

vt -1.2201 0.225
vn -0.707108 5.42559e-016 0.707105
vt -1.60833 0.225
vt -1.2201 0.1875
f 22/55/20 13/56/20 11/57/20

vt -0.711749 0.225
v 0 0.1875 -1.25
vt -0.323521 0.1875
f 22/58/9 11/25/9 23/59/9

f 23/59/9 11/25/9 9/27/9

vt 0.323521 0.1875
vt 0.323521 0.15
v 0.375 0.15 -1.35048
vt 0.711749 0.15
f 23/60/6 9/61/6 24/62/6

vt 0.711749 0.15
f 24/63/7 9/19/7 7/21/7

vt 1.2201 0.15
vn 0.707108 0 0.707105
v 0.649519 0.1125 -1.625
vt 1.60833 0.1125
f 24/64/21 7/13/21 25/65/21

vt 1.60833 0.1125
vn 0.707108 0 0.707105
f 25/66/22 7/13/22 5/15/22

vt 1.73774 0.1125
vn 0.965926 1.98591e-016 0.258819
vt 1.73774 0.075
v 0.75 0.075 -2
vt 2.12597 0.075
f 25/67/23 5/68/23 26/69/23

vt 2.12597 0.075
f 26/70/3 5/7/3 1/9/3

vt 1.73774 0.075
vn 0.965926 0 -0.258819
v 0.649519 0.0375 -2.375
vt 2.12597 0.0375
f 26/71/24 1/1/24 27/72/24

vt 2.12597 0.0375
vn 0.965926 -1.98591e-016 -0.258819
vt 1.73774 0.0375
vt 2.12597 -2.56714e-008
f 27/73/25 1/74/25 3/75/25

vt 1.2201 0.0375
vn 0.707108 5.42558e-016 -0.707105
vt 1.2201 -2.56714e-008
v 0.375 -4.44642e-008 -2.64952
vt 1.60833 -4.44642e-008
f 27/76/26 3/77/26 28/78/26

vt -0.375 2.64952
vn -1.68895e-013 -1 6.84571e-008
vt -0.649519 2.375
vt -0.75 2
f 28/79/27 3/80/27 2/81/27

v 0 -5.13428e-008 -2.75
vt 6.34796e-021 2.75
vn 1.23639e-013 -1 6.84569e-008
f 29/82/28 28/79/28 2/81/28

v 0.375 0.0375 -2.64952
vt 0.323518 0.0375
vn 0.258817 0 -0.965926
vt 0.323518 -4.44642e-008
vt 0.711746 -5.13428e-008
f 30/83/29 28/84/29 29/85/29

vt 1.60833 0.0375
vn 0.707108 0 -0.707105
vt 1.2201 0.0375
vt 1.60833 -4.44642e-008
f 30/86/30 27/87/30 28/88/30

v 0.649519 0.075 -2.375
vt 1.2201 0.075
vn 0.707108 5.42559e-016 -0.707105
vt 1.60833 0.0375
f 31/89/31 27/76/31 30/90/31

vt 2.12597 0.075
vn 0.965926 3.97183e-016 -0.258819
vt 1.73774 0.075
vt 2.12597 0.0375
f 31/91/32 26/92/32 27/93/32

v 0.75 0.1125 -2
vt 1.73774 0.1125
vn 0.965926 -1.98591e-016 -0.258819
vt 1.73774 0.075
vt 2.12597 0.075
f 32/94/33 26/95/33 31/96/33

vt 2.12597 0.1125
f 32/97/23 25/67/23 26/69/23

v 0.649519 0.15 -1.625
vt 1.73774 0.15
vn 0.965926 0 0.258819
f 33/98/34 25/67/34 32/97/34

vt 1.60833 0.15
vn 0.707108 -5.42559e-016 0.707105
vt 1.2201 0.15
vt 1.60833 0.1125
f 33/99/35 24/100/35 25/101/35

v 0.375 0.1875 -1.35048
vt 1.2201 0.1875
vn 0.707108 5.42559e-016 0.707105
vt 1.2201 0.15
vt 1.60833 0.15
f 34/102/36 24/103/36 33/104/36

vt 0.711749 0.1875
f 34/105/6 23/60/6 24/62/6

v 0 0.225 -1.25
vt 0.323521 0.225
f 35/106/6 23/60/6 34/105/6

vt -0.323521 0.225
vt -0.711749 0.225
vt -0.323521 0.1875
f 35/107/8 22/108/8 23/109/8

v -0.375 0.2625 -1.35048
vt -0.711749 0.2625
vt -0.323521 0.225
f 36/110/9 22/58/9 35/111/9

vt -1.2201 0.2625
vt -1.60833 0.2625
f 36/112/10 21/113/10 22/54/10

v -0.649519 0.3 -1.625
vt -1.60833 0.3
vn -0.707108 5.42559e-016 0.707105
vt -1.60833 0.2625
vt -1.2201 0.2625
f 37/114/37 21/115/37 36/116/37

vt -1.73774 0.3
vn -0.965926 -1.98591e-016 0.258819
vt -2.12597 0.3
vt -1.73774 0.2625
f 37/117/38 20/118/38 21/119/38

vt -0.649519 1.625
f 20/46/16 37/120/16 19/45/16

v -0.375 0.3 -1.35048
vt -0.375 1.35048
f 37/120/16 38/121/16 19/45/16

vt -1.2201 0.3
f 38/122/37 37/114/37 36/116/37

vt -0.711749 0.3
vn -0.258817 1.98591e-016 0.965926
vt -0.711749 0.2625
v 0 0.2625 -1.25
vt -0.323521 0.2625
f 38/123/39 36/124/39 39/125/39

vt -0.323521 0.2625
f 39/126/9 36/110/9 35/111/9

vt 0.323521 0.2625
v 0.375 0.225 -1.35048
vt 0.711749 0.225
f 39/127/6 35/106/6 40/128/6

vt 0.711749 0.225
vt 0.323521 0.225
vt 0.711749 0.1875
f 40/129/7 35/130/7 34/131/7

vt 1.2201 0.225
v 0.649519 0.1875 -1.625
vt 1.60833 0.1875
f 40/132/36 34/102/36 41/133/36

vt 1.60833 0.1875
vt 1.2201 0.1875
vt 1.60833 0.15
f 41/134/22 34/135/22 33/136/22

vt 1.73774 0.1875
v 0.75 0.15 -2
vt 2.12597 0.15
f 41/137/23 33/98/23 42/138/23

f 42/138/34 33/98/34 32/97/34

vt 1.73774 0.15
vt 1.73774 0.1125
v 0.649519 0.1125 -2.375
vt 2.12597 0.1125
f 42/139/1 32/140/1 43/141/1

vt 2.12597 0.1125
vn 0.965926 1.98591e-016 -0.258819
vt 1.73774 0.1125
vt 2.12597 0.075
f 43/142/40 32/143/40 31/144/40

vt 1.2201 0.1125
vn 0.707108 5.42559e-016 -0.707105
v 0.375 0.075 -2.64952
vt 1.60833 0.075
f 43/145/41 31/89/41 44/146/41

vt 1.60833 0.075
vn 0.707108 0 -0.707105
vt 1.2201 0.075
f 44/147/42 31/148/42 30/86/42

vt 0.323518 0.075
vn 0.258817 -1.98591e-016 -0.965926
vt 0.323518 0.0375
v 0 0.0374999 -2.75
vt 0.711746 0.0374999
f 44/149/43 30/150/43 45/151/43

vt 0.711746 0.0374999
vn 0.258817 1.98592e-016 -0.965926
vt 0.323518 0.0375
vt 0.711746 -5.13428e-008
f 45/152/44 30/153/44 29/154/44

vt -0.711746 0.0374999
vn -0.258817 0 -0.965926
vt -0.711746 -5.13428e-008
v -0.375 -4.44642e-008 -2.64952
vt -0.323518 -4.44642e-008
f 45/155/45 29/156/45 46/157/45

vt 0.375 2.64952
vn -7.13833e-014 -1 6.84571e-008
vt -3.66502e-021 2.75
f 46/158/46 29/159/46 2/81/46

v -0.649519 -2.56714e-008 -2.375
vt 0.649519 2.375
vn 2.6128e-014 -1 6.8457e-008
f 47/160/47 46/158/47 2/81/47

v -0.375 0.0375 -2.64952
vt -1.60833 0.0375
vn -0.707108 0 -0.707105
vt -1.60833 -4.44642e-008
vt -1.2201 -2.56714e-008
f 48/161/48 46/162/48 47/163/48

vt -0.323518 0.0375
vn -0.258817 -1.98591e-016 -0.965926
vt -0.711746 0.0374999
vt -0.323518 -4.44642e-008
f 48/164/49 45/165/49 46/166/49

v 0 0.075 -2.75
vt -0.711746 0.075
vn -0.258817 1.9859e-016 -0.965926
vt -0.711746 0.0374999
vt -0.323518 0.0375
f 49/167/50 45/168/50 48/169/50

vt 0.711746 0.075
vt 0.323518 0.075
vt 0.711746 0.0374999
f 49/170/29 44/171/29 45/172/29

v 0.375 0.1125 -2.64952
vt 0.323518 0.1125
vn 0.258817 -1.98591e-016 -0.965926
vt 0.711746 0.075
f 50/173/51 44/149/51 49/174/51

vt 1.60833 0.1125
vn 0.707108 -5.42559e-016 -0.707105
vt 1.2201 0.1125
vt 1.60833 0.075
f 50/175/52 43/176/52 44/177/52

v 0.649519 0.15 -2.375
vt 1.2201 0.15
vn 0.707108 1.08512e-015 -0.707105
vt 1.2201 0.1125
vt 1.60833 0.1125
f 51/178/53 43/179/53 50/180/53

vt 2.12597 0.15
f 51/181/1 42/139/1 43/141/1

v 0.75 0.1875 -2
vt 1.73774 0.1875
vt 1.73774 0.15
vt 2.12597 0.15
f 52/182/33 42/183/33 51/184/33

vt 2.12597 0.1875
f 52/185/23 41/137/23 42/138/23

v 0.649519 0.225 -1.625
vt 1.73774 0.225
f 53/186/23 41/137/23 52/185/23

vt 1.60833 0.225
vn 0.707108 -5.42559e-016 0.707105
vt 1.2201 0.225
vt 1.60833 0.1875
f 53/187/54 40/188/54 41/189/54

v 0.375 0.2625 -1.35048
vt 1.2201 0.2625
vt 1.60833 0.225
f 54/190/36 40/132/36 53/191/36

vt 0.711749 0.2625
f 54/192/6 39/127/6 40/128/6

v 0 0.3 -1.25
vt 0.323521 0.3
vt 0.323521 0.2625
vt 0.711749 0.2625
f 55/193/7 39/194/7 54/195/7

vt -0.323521 0.3
vt -0.711749 0.3
vt -0.323521 0.2625
f 55/196/8 38/197/8 39/198/8

vt 0 1.25
f 38/121/16 55/199/16 19/45/16

v 0.375 0.3 -1.35048
vt 0.375 1.35048
f 55/199/16 56/200/16 19/45/16

vt 0.711749 0.3
f 56/201/7 55/193/7 54/195/7

vt 1.2201 0.3
vt 1.2201 0.2625
v 0.649519 0.2625 -1.625
vt 1.60833 0.2625
f 56/202/21 54/203/21 57/204/21

vt 1.60833 0.2625
vt 1.60833 0.225
f 57/205/22 54/203/22 53/206/22

vt 1.73774 0.2625
v 0.75 0.225 -2
vt 2.12597 0.225
f 57/207/23 53/186/23 58/208/23

f 58/208/23 53/186/23 52/185/23

vt 1.73774 0.225
v 0.649519 0.1875 -2.375
vt 2.12597 0.1875
f 58/209/33 52/182/33 59/210/33

vt 2.12597 0.1875
vt 1.73774 0.1875
vt 2.12597 0.15
f 59/211/40 52/212/40 51/213/40

vt 1.2201 0.1875
vt 1.2201 0.15
v 0.375 0.15 -2.64952
vt 1.60833 0.15
f 59/214/41 51/215/41 60/216/41

vt 1.60833 0.15
vn 0.707108 5.42559e-016 -0.707105
vt 1.2201 0.15
vt 1.60833 0.1125
f 60/217/55 51/218/55 50/219/55

vt 0.323518 0.15
vt 0.323518 0.1125
v 0 0.1125 -2.75
vt 0.711746 0.1125
f 60/220/29 50/221/29 61/222/29

vt 0.711746 0.1125
vn 0.258817 1.98591e-016 -0.965926
vt 0.323518 0.1125
vt 0.711746 0.075
f 61/223/56 50/224/56 49/225/56

vt -0.711746 0.1125
vn -0.258817 1.98591e-016 -0.965926
vt -0.711746 0.075
v -0.375 0.075 -2.64952
vt -0.323518 0.075
f 61/226/57 49/227/57 62/228/57

vt -0.323518 0.075
vn -0.258817 0 -0.965926
vt -0.711746 0.075
vt -0.323518 0.0375
f 62/229/58 49/230/58 48/231/58

vt -1.60833 0.075
vn -0.707108 5.42559e-016 -0.707105
vt -1.60833 0.0375
v -0.649519 0.0375 -2.375
vt -1.2201 0.0375
f 62/232/59 48/233/59 63/234/59

vt -1.2201 0.0375
f 63/235/48 48/161/48 47/163/48

vt -2.12597 0.0375
vn -0.965926 0 -0.258819
vt -2.12597 -2.56714e-008
v -0.75 0 -2
vt -1.73774 0
f 63/236/60 47/237/60 64/238/60

vt 0.75 2
vn -1.96072e-024 -1 6.84571e-008
f 64/239/61 47/160/61 2/81/61

v -0.649519 2.56714e-008 -1.625
vt 0.649519 1.625
vn 1.96072e-024 -1 6.84571e-008
f 65/240/62 64/239/62 2/81/62

v -0.75 0.0375 -2
vt -2.12597 0.0375
vt -2.12597 4.10699e-017
vt -1.73774 2.56714e-008
f 66/241/12 64/242/12 65/243/12

vt -1.73774 0.0375
vn -0.965926 -1.98591e-016 -0.258819
vt -2.12597 0.0375
vt -1.73774 2.46667e-016
f 66/244/63 63/245/63 64/246/63

v -0.649519 0.075 -2.375
vt -2.12597 0.075
vn -0.965926 0 -0.258819
vt -1.73774 0.0375
f 67/247/64 63/236/64 66/248/64

vt -1.2201 0.075
vt -1.60833 0.075
f 67/249/48 62/250/48 63/235/48

v -0.375 0.1125 -2.64952
vt -1.60833 0.1125
f 68/251/48 62/250/48 67/249/48

vt -0.323518 0.1125
vn -0.258817 -1.98591e-016 -0.965926
vt -0.711746 0.1125
vt -0.323518 0.075
f 68/252/65 61/253/65 62/254/65

v 0 0.15 -2.75
vt -0.711746 0.15
vt -0.711746 0.1125
vt -0.323518 0.1125
f 69/255/45 61/256/45 68/257/45

vt 0.711746 0.15
vn 0.258817 1.98591e-016 -0.965926
vt 0.323518 0.15
f 69/258/66 60/259/66 61/223/66

v 0.375 0.1875 -2.64952
vt 0.323518 0.1875
vt 0.323518 0.15
vt 0.711746 0.15
f 70/260/51 60/261/51 69/262/51

vt 1.60833 0.1875
vt 1.2201 0.1875
vt 1.60833 0.15
f 70/263/52 59/264/52 60/265/52

v 0.649519 0.225 -2.375
vt 1.2201 0.225
f 71/266/52 59/264/52 70/263/52

vt 2.12597 0.225
f 71/267/33 58/209/33 59/210/33

v 0.75 0.2625 -2
vt 1.73774 0.2625
f 72/268/33 58/209/33 71/267/33

vt 2.12597 0.2625
f 72/269/23 57/207/23 58/208/23

vt 1.73774 0.3
vn 0.965926 1.98591e-016 0.258819
f 19/270/67 57/207/67 72/269/67

vt 1.60833 0.3
f 19/271/22 56/202/22 57/205/22

v 0.75 0.3 -2
vt 2.12597 0.3
f 73/272/67 19/270/67 72/269/67

vt 0.75 2
v 0.649519 0.3 -2.375
vt 0.649519 2.375
f 73/273/16 74/274/16 19/45/16

vt 2.12597 0.3
vn 0.965926 1.98591e-016 -0.258819
vt 1.73774 0.3
v 0.649519 0.2625 -2.375
vt 2.12597 0.2625
f 74/275/68 73/276/68 75/277/68

vt 1.73774 0.2625
f 73/276/68 72/278/68 75/277/68

vt 2.12597 0.225
f 75/277/40 72/278/40 71/279/40

vt 1.2201 0.2625
vt 1.2201 0.225
v 0.375 0.225 -2.64952
vt 1.60833 0.225
f 75/280/30 71/281/30 76/282/30

vt 1.60833 0.225
vn 0.707108 -5.42559e-016 -0.707105
vt 1.2201 0.225
vt 1.60833 0.1875
f 76/283/69 71/284/69 70/285/69

vt 0.323518 0.225
vn 0.258817 1.98591e-016 -0.965926
vt 0.323518 0.1875
v 0 0.1875 -2.75
vt 0.711746 0.1875
f 76/286/70 70/287/70 77/288/70

vt 0.711746 0.1875
vt 0.323518 0.1875
f 77/289/56 70/290/56 69/258/56

vt -0.711746 0.1875
vt -0.711746 0.15
v -0.375 0.15 -2.64952
vt -0.323518 0.15
f 77/291/65 69/292/65 78/293/65

vt -0.323518 0.15
f 78/294/45 69/255/45 68/257/45

vt -1.60833 0.15
vn -0.707108 -5.42559e-016 -0.707105
vt -1.60833 0.1125
v -0.649519 0.1125 -2.375
vt -1.2201 0.1125
f 78/295/71 68/296/71 79/297/71

vt -1.2201 0.1125
vn -0.707108 5.42559e-016 -0.707105
vt -1.60833 0.1125
vt -1.2201 0.075
f 79/298/72 68/299/72 67/300/72

vt -2.12597 0.1125
vt -2.12597 0.075
v -0.75 0.075 -2
vt -1.73774 0.075
f 79/301/13 67/302/13 80/303/13

vt -1.73774 0.075
f 80/304/64 67/247/64 66/248/64

vt -2.12597 0.075
vn -0.965926 0 0.258819
vt -2.12597 0.0375
v -0.649519 0.0375 -1.625
vt -1.73774 0.0375
f 80/305/73 66/306/73 81/307/73

vn -0.965926 0 0.258819
vt -1.73774 2.56714e-008
f 81/307/74 66/306/74 65/308/74

vt -1.60833 0.0375
vn -0.707108 5.4256e-016 0.707105
vt -1.60833 2.56714e-008
v -0.375 4.44642e-008 -1.35048
vt -1.2201 4.44642e-008
f 81/309/75 65/310/75 82/311/75

vt 0.375 1.35048
vn -2.6128e-014 -1 6.8457e-008
f 82/312/76 65/240/76 2/81/76

v 0 5.13428e-008 -1.25
vt -3.66502e-021 1.25
vn 7.13833e-014 -1 6.84571e-008
f 83/313/77 82/312/77 2/81/77

v -0.375 0.0375 -1.35048
vt -0.711749 0.0375
vt -0.711749 4.44642e-008
vt -0.323521 5.13428e-008
f 84/314/8 82/315/8 83/316/8

vt -1.2201 0.0375
vn -0.707108 -5.4256e-016 0.707105
vt -1.60833 0.0375
vt -1.2201 4.44642e-008
f 84/317/78 81/318/78 82/319/78

v -0.649519 0.075 -1.625
vt -1.60833 0.075
vn -0.707108 5.42559e-016 0.707105
vt -1.2201 0.0375
f 85/320/79 81/309/79 84/321/79

vt -1.73774 0.075
vn -0.965926 3.97183e-016 0.258819
vt -2.12597 0.075
vt -1.73774 0.0375
f 85/322/80 80/323/80 81/324/80

v -0.75 0.1125 -2
vt -2.12597 0.1125
vt -2.12597 0.075
vt -1.73774 0.075
f 86/325/12 80/326/12 85/327/12

vt -1.73774 0.1125
f 86/328/13 79/301/13 80/303/13

v -0.649519 0.15 -2.375
vt -2.12597 0.15
vt -2.12597 0.1125
vt -1.73774 0.1125
f 87/329/60 79/330/60 86/331/60

vt -1.2201 0.15
vn -0.707108 -1.08512e-015 -0.707105
vt -1.60833 0.15
vt -1.2201 0.1125
f 87/332/81 78/333/81 79/334/81

v -0.375 0.1875 -2.64952
vt -1.60833 0.1875
vt -1.60833 0.15
vt -1.2201 0.15
f 88/335/59 78/336/59 87/337/59

vt -0.323518 0.1875
f 88/338/65 77/291/65 78/293/65

v 0 0.225 -2.75
vt -0.711746 0.225
vt -0.711746 0.1875
vt -0.323518 0.1875
f 89/339/57 77/340/57 88/341/57

vt 0.711746 0.225
vn 0.258817 1.98591e-016 -0.965926
f 89/342/82 76/286/82 77/288/82

v 0.375 0.2625 -2.64952
vt 0.323518 0.2625
vt 0.323518 0.225
vt 0.711746 0.225
f 90/343/51 76/344/51 89/345/51

vt 1.60833 0.2625
vt 1.2201 0.2625
vt 1.60833 0.225
f 90/346/52 75/347/52 76/348/52

vt 1.2201 0.3
vn 0.707108 0 -0.707105
vt 1.60833 0.2625
f 74/349/83 75/280/83 90/350/83

v 0.375 0.3 -2.64952
vt 1.60833 0.3
vn 0.707108 1.62768e-015 -0.707105
vt 1.2201 0.3
vt 1.60833 0.2625
f 91/351/84 74/352/84 90/353/84

vt 0.375 2.64952
f 74/274/16 91/354/16 19/45/16

v 0 0.3 -2.75
vt 0 2.75
f 91/354/16 92/355/16 19/45/16

vt 0.711746 0.3
vt 0.323518 0.3
v 0 0.2625 -2.75
vt 0.711746 0.2625
f 92/356/29 91/357/29 93/358/29

vt 0.323518 0.2625
f 91/357/29 90/359/29 93/358/29

vt 0.711746 0.2625
vt 0.323518 0.2625
vt 0.711746 0.225
f 93/360/56 90/361/56 89/362/56

vt -0.711746 0.2625
v -0.375 0.225 -2.64952
vt -0.323518 0.225
f 93/363/57 89/339/57 94/364/57

vn -0.258817 1.98591e-016 -0.965926
f 94/364/85 89/339/85 88/341/85

vt -1.60833 0.225
vt -1.60833 0.1875
v -0.649519 0.1875 -2.375
vt -1.2201 0.1875
f 94/365/48 88/366/48 95/367/48

vt -1.2201 0.1875
vt -1.60833 0.1875
vt -1.2201 0.15
f 95/368/72 88/369/72 87/370/72

vt -2.12597 0.1875
vt -2.12597 0.15
v -0.75 0.15 -2
vt -1.73774 0.15
f 95/371/13 87/372/13 96/373/13

vt -1.73774 0.15
f 96/374/60 87/329/60 86/331/60

vt -2.12597 0.15
v -0.649519 0.1125 -1.625
vt -1.73774 0.1125
f 96/375/74 86/325/74 97/376/74

vt -1.73774 0.075
f 97/376/18 86/325/18 85/377/18

vt -1.60833 0.1125
vt -1.60833 0.075
v -0.375 0.075 -1.35048
vt -1.2201 0.075
f 97/378/11 85/379/11 98/380/11

vt -1.2201 0.075
vn -0.707108 5.42559e-016 0.707105
vt -1.60833 0.075
f 98/381/86 85/382/86 84/321/86

vt -0.711749 0.075
vn -0.258817 -3.97183e-016 0.965926
vt -0.711749 0.0375
v 0 0.0375 -1.25
vt -0.323521 0.0375
f 98/383/87 84/384/87 99/385/87

vt -0.323521 0.0375
vn -0.258817 3.97184e-016 0.965926
vt -0.711749 0.0375
vt -0.323521 5.13428e-008
f 99/386/88 84/387/88 83/388/88

vt 0.323521 0.0375
vn 0.258817 -1.98592e-016 0.965926
vt 0.323521 5.13428e-008
v 0.375 4.44642e-008 -1.35048
vt 0.711749 4.44642e-008
f 99/389/89 83/390/89 100/391/89

vt -0.375 1.35048
vn -1.23639e-013 -1 6.84569e-008
vt 6.34796e-021 1.25
f 100/392/90 83/393/90 2/81/90

v 0.649519 2.56714e-008 -1.625
vt -0.649519 1.625
vn 1.68895e-013 -1 6.84571e-008
f 101/394/91 100/392/91 2/81/91

v 0.375 0.0375 -1.35048
vt 1.2201 0.0375
vn 0.707108 -5.4256e-016 0.707105
vt 1.2201 4.44642e-008
vt 1.60833 2.56714e-008
f 102/395/92 100/396/92 101/397/92

vt 0.711749 0.0375
vt 0.323521 0.0375
vt 0.711749 4.44642e-008
f 102/398/7 99/399/7 100/400/7

v 0 0.075 -1.25
vt 0.323521 0.075
vn 0.258817 -1.98591e-016 0.965926
vt 0.711749 0.0375
f 103/401/93 99/389/93 102/402/93

vt -0.323521 0.075
vn -0.258817 1.98591e-016 0.965926
vt -0.711749 0.075
vt -0.323521 0.0375
f 103/403/94 98/404/94 99/405/94

v -0.375 0.1125 -1.35048
vt -0.711749 0.1125
vt -0.711749 0.075
vt -0.323521 0.075
f 104/406/9 98/407/9 103/408/9

vt -1.2201 0.1125
f 104/409/10 97/378/10 98/380/10

v -0.649519 0.15 -1.625
vt -1.60833 0.15
vn -0.707108 5.42559e-016 0.707105
vt -1.60833 0.1125
vt -1.2201 0.1125
f 105/410/95 97/411/95 104/412/95

vt -1.73774 0.15
f 105/413/74 96/375/74 97/376/74

v -0.75 0.1875 -2
vt -2.12597 0.1875
f 106/414/12 96/375/12 105/413/12

vt -1.73774 0.1875
f 106/415/13 95/371/13 96/373/13

v -0.649519 0.225 -2.375
vt -2.12597 0.225
f 107/416/13 95/371/13 106/415/13

vt -1.2201 0.225
vn -0.707108 -5.42559e-016 -0.707105
vt -1.60833 0.225
vt -1.2201 0.1875
f 107/417/96 94/418/96 95/419/96

v -0.375 0.2625 -2.64952
vt -1.60833 0.2625
vt -1.60833 0.225
vt -1.2201 0.225
f 108/420/59 94/421/59 107/422/59

vt -0.323518 0.2625
vt -0.711746 0.2625
vt -0.323518 0.225
f 108/423/65 93/424/65 94/425/65

vt -0.711746 0.3
vn -0.258817 1.98591e-016 -0.965926
vt -0.323518 0.2625
f 92/426/97 93/363/97 108/427/97

vt -0.323518 0.3
vn -0.258817 -3.97183e-016 -0.965926
vt -0.711746 0.3
vt -0.323518 0.2625
f 18/428/98 92/429/98 108/430/98

f 92/355/16 18/43/16 19/45/16

vt -1.60833 0.3
vn -0.707108 0 -0.707105
vt -1.60833 0.2625
vt -1.2201 0.2625
f 18/431/99 108/432/99 16/433/99

vt -1.2201 0.2625
vt -1.60833 0.2625
vt -1.2201 0.225
f 16/434/72 108/435/72 107/436/72

f 16/37/13 107/416/13 14/38/13

f 14/38/13 107/416/13 106/415/13

f 14/33/12 106/414/12 12/34/12

f 12/34/18 106/414/18 105/413/18

vt -1.60833 0.1875
vn -0.707108 1.62768e-015 0.707105
vt -1.60833 0.15
vt -1.2201 0.15
f 12/437/100 105/438/100 10/439/100

vt -1.2201 0.15
f 10/440/95 105/410/95 104/412/95

vt -0.711749 0.1125
f 10/23/8 104/441/8 8/24/8

vt -0.323521 0.1125
f 8/442/9 104/406/9 103/408/9

vt 0.323521 0.1125
vt 0.323521 0.075
vt 0.711749 0.075
f 8/443/7 103/444/7 6/445/7

vt 0.711749 0.075
f 6/446/93 103/401/93 102/402/93

vt 1.2201 0.0375
vt 1.60833 0.0375
f 6/14/21 102/447/21 4/448/21

vt 1.60833 0.0375
vt 1.60833 2.56714e-008
f 4/449/22 102/447/22 101/450/22

vt 1.73774 0.0375
vn 0.965926 1.98592e-016 0.258819
vt 1.73774 2.56714e-008
vt 2.12597 -4.10699e-017
f 4/451/101 101/452/101 2/453/101

