# Alias OBJ Model File
# Exported from SketchUp, (c) 2000-2006 Google, Inc.
# File units = inches

mtllib Coin1.mtl

g Mesh1 Mesh1_Mesh1_Mesh1_Mesh2_cylinder01_1_skp1B9_1_Model_Model_Model_Model Model

usemtl rubber_trtri1
v 0.141182 0.762497 -0.80606
vt -0.141182 0.845205
vn 4.43002e-016 -0.499992 -0.86603
v 0.178682 0.762497 -0.80606
vt -0.178682 0.845205
v 0.178682 0.426281 -0.61195
vt -0.178682 0.456979
f 1/1/1 2/2/1 3/3/1

vt -0.141182 -0.175003
vn 0 0 -1
v 0.141182 1.15073 -0.80606
vt -0.141182 0.213226
vt -0.178682 -0.175003
f 1/4/2 4/5/2 2/6/2

v 0.103682 1.15073 -0.80606
vt -0.103682 0.213226
f 5/7/2 4/5/2 1/4/2

vt -0.103682 -0.812103
vn 0 0.499992 -0.86603
v 0.103682 1.48694 -0.61195
vt -0.103682 -0.423876
vt -0.141182 -0.812103
f 5/8/3 6/9/3 4/10/3

v 0.0661825 1.48694 -0.61195
vt -0.0661825 -0.423876
vn 8.86027e-016 0.499992 -0.86603
vt -0.103682 -0.423876
vt -0.103682 -0.812103
f 7/11/4 6/12/4 5/13/4

vt -0.0661825 -1.28366
vn 4.43003e-016 0.86603 -0.499993
v 0.0661825 1.68106 -0.27573
vt -0.0661825 -0.895428
vt -0.103682 -1.28366
f 7/14/5 8/15/5 6/16/5

v 0.0286825 1.68106 -0.27573
vt -0.0286825 -0.895428
vn -8.85981e-016 0.86603 -0.499993
vt -0.0661825 -0.895428
vt -0.0661825 -1.28366
f 9/17/6 8/18/6 7/19/6

vt 0.0286825 1.46323
vn 0 1 -0
v 0.0286825 1.68106 0.1125
vt 0.0286825 1.075
vt 0.0661825 1.46323
f 9/20/7 10/21/7 8/22/7

v -0.0088175 1.68106 0.1125
vt -0.0088175 1.075
f 11/23/7 10/21/7 9/20/7

vt -0.0088175 1.30276
vn 0 0.86602 0.50001
v -0.0088176 1.48694 0.44871
vt -0.0088176 0.914532
vt 0.0286825 1.30276
f 11/24/8 12/25/8 10/26/8

v -0.0463175 1.48694 0.44871
vt -0.0463175 0.914532
vn 4.43014e-016 0.86602 0.50001
vt -0.0088176 0.914532
vt -0.0088175 1.30276
f 13/27/9 12/28/9 11/29/9

vt -0.0463175 0.845228
vn 4.42998e-016 0.500011 0.866019
v -0.0463175 1.15072 0.64283
vt -0.0463175 0.456996
vt -0.0088176 0.845228
f 13/30/10 14/31/10 12/32/10

v -0.0838175 1.15072 0.64283
vt -0.0838175 0.456996
vn -4.42996e-016 0.500011 0.866019
vt -0.0463175 0.456996
vt -0.0463175 0.845228
f 15/33/11 14/34/11 13/35/11

vt -0.0838175 0.213223
vn 0 0 1
v -0.0838175 0.762494 0.64283
vt -0.0838175 -0.175006
vt -0.0463175 0.213223
f 15/36/12 16/37/12 14/38/12

v -0.121318 0.762494 0.64283
vt -0.121318 -0.175006
f 17/39/12 16/37/12 15/36/12

vt -0.121318 -0.423899
vn 8.85968e-016 -0.500011 0.866019
v -0.121318 0.426278 0.44871
vt -0.121318 -0.812131
vt -0.0838175 -0.423899
f 17/40/13 18/41/13 16/42/13

vt -0.73879 -0.511222
vn -1 0 -0
vt -0.54467 -0.175006
v -0.121318 1.15073 -0.80606
vt -1.99356 0.213226
f 18/43/14 17/44/14 19/45/14

v -0.121318 1.15072 0.64283
vt -0.54467 0.213223
f 17/44/14 20/46/14 19/45/14

vt -0.121318 0.213223
f 20/47/12 17/39/12 15/36/12

vt -0.121318 0.456996
vn 0 0.500011 0.866019
vt -0.0838175 0.456996
v -0.0838175 1.48694 0.44871
vt -0.0838175 0.845228
f 20/48/15 15/49/15 21/50/15

vt -0.0838175 0.845228
vn 0 0.500011 0.866019
vt -0.0838175 0.456996
vt -0.0463175 0.845228
f 21/51/16 15/52/16 13/53/16

vt -0.0838175 0.914532
vt -0.0463175 0.914532
v -0.0463175 1.68106 0.1125
vt -0.0463175 1.30276
f 21/54/8 13/55/8 22/56/8

vt -0.0463175 1.30276
vn 4.43012e-016 0.86602 0.50001
vt -0.0463175 0.914532
f 22/57/17 13/58/17 11/29/17

vt -0.0463175 1.075
v -0.0088175 1.68106 -0.27573
vt -0.0088175 1.46323
f 22/59/7 11/23/7 23/60/7

f 23/60/7 11/23/7 9/20/7

vt 0.0088175 -0.895428
vn 0 0.86603 -0.499993
vt -0.0286825 -0.895428
v 0.0286825 1.48694 -0.61195
vt -0.0286825 -1.28366
f 23/61/18 9/62/18 24/63/18

vt -0.0286825 -1.28366
vn 4.42991e-016 0.86603 -0.499993
vt -0.0286825 -0.895428
f 24/64/19 9/65/19 7/14/19

vt -0.0286825 -0.423876
vn 4.43002e-016 0.499992 -0.86603
vt -0.0661825 -0.423876
v 0.0661825 1.15073 -0.80606
vt -0.0661825 -0.812103
f 24/66/20 7/67/20 25/68/20

vt -0.0661825 -0.812103
vt -0.0661825 -0.423876
f 25/69/3 7/70/3 5/8/3

vt -0.0661825 0.213226
v 0.103682 0.762497 -0.80606
vt -0.103682 -0.175003
f 25/71/2 5/7/2 26/72/2

f 26/72/2 5/7/2 1/4/2

vt -0.103682 0.845205
vn 0 -0.499992 -0.86603
vt -0.141182 0.845205
v 0.141182 0.426281 -0.61195
vt -0.141182 0.456979
f 26/73/21 1/74/21 27/75/21

vt -0.141182 0.456979
vn 4.43002e-016 -0.499992 -0.86603
vt -0.141182 0.845205
vt -0.178682 0.456979
f 27/76/22 1/77/22 3/78/22

vt -0.141182 1.30276
vn 0 -0.866026 -0.499999
vt -0.178682 1.30276
v 0.178682 0.232165 -0.27573
vt -0.178682 0.914529
f 27/79/23 3/80/23 28/81/23

vt 1.46323 -0.705335
vn 1 0 -0
vt 1.79945 -0.511219
vt 1.99356 -0.175003
f 28/82/24 3/83/24 2/84/24

v 0.178682 0.232165 0.1125
vt 1.075 -0.705335
f 29/85/24 28/82/24 2/84/24

v 0.141182 0.232165 -0.27573
vt -0.141182 1.46323
vn 0 -1 -0
vt -0.178682 1.46323
vt -0.178682 1.075
f 30/86/25 28/87/25 29/88/25

vt -0.141182 0.914529
vn -8.85978e-016 -0.866026 -0.499999
vt -0.141182 1.30276
vt -0.178682 0.914529
f 30/89/26 27/90/26 28/91/26

v 0.103682 0.426281 -0.61195
vt -0.103682 1.30276
vt -0.141182 0.914529
f 31/92/23 27/79/23 30/93/23

vt -0.103682 0.456979
vt -0.103682 0.845205
f 31/94/22 26/95/22 27/76/22

v 0.0661825 0.762497 -0.80606
vt -0.0661825 0.845205
vn 4.43013e-016 -0.499992 -0.86603
f 32/96/27 26/95/27 31/94/27

vt -0.0661825 -0.175003
f 32/97/2 25/71/2 26/72/2

v 0.0286825 1.15073 -0.80606
vt -0.0286825 0.213226
f 33/98/2 25/71/2 32/97/2

vt -0.0286825 -0.812103
vn -4.43002e-016 0.499992 -0.86603
vt -0.0286825 -0.423876
vt -0.0661825 -0.812103
f 33/99/28 24/100/28 25/101/28

v -0.0088175 1.48694 -0.61195
vt 0.0088175 -0.423876
vn 8.86003e-016 0.499992 -0.86603
vt -0.0286825 -0.423876
vt -0.0286825 -0.812103
f 34/102/29 24/103/29 33/104/29

vt 0.0088175 -1.28366
vt 0.0088175 -0.895428
f 34/105/19 23/106/19 24/64/19

v -0.0463175 1.68106 -0.27573
vt 0.0463175 -0.895428
vn 0 0.86603 -0.499993
vt 0.0088175 -0.895428
vt 0.0088175 -1.28366
f 35/107/30 23/108/30 34/109/30

vt -0.0463175 1.46323
f 35/110/7 22/59/7 23/60/7

v -0.0838175 1.68106 0.1125
vt -0.0838175 1.075
f 36/111/7 22/59/7 35/110/7

vt -0.0838175 1.30276
vn -4.43012e-016 0.86602 0.50001
vt -0.0838175 0.914532
vt -0.0463175 1.30276
f 36/112/31 21/113/31 22/114/31

v -0.121318 1.48694 0.44871
vt -0.121318 0.914532
vn 4.43e-016 0.86602 0.50001
vt -0.0838175 0.914532
vt -0.0838175 1.30276
f 37/115/32 21/116/32 36/117/32

vt -0.121318 0.845228
vn 4.42984e-016 0.500011 0.866019
vt -0.121318 0.456996
vt -0.0838175 0.845228
f 37/118/33 20/119/33 21/120/33

vt -0.73879 0.549439
f 20/46/14 37/121/14 19/45/14

v -0.121318 1.68106 0.1125
vt -1.075 0.743555
f 37/121/14 38/122/14 19/45/14

vt -0.121318 1.30276
vt -0.121318 0.914532
vt -0.0838175 1.30276
f 38/123/8 37/124/8 36/125/8

vt -0.121318 1.075
v -0.0838175 1.68106 -0.27573
vt -0.0838175 1.46323
f 38/126/7 36/111/7 39/127/7

f 39/127/7 36/111/7 35/110/7

vt 0.0838175 -0.895428
vt 0.0463175 -0.895428
v -0.0463175 1.48694 -0.61195
vt 0.0463175 -1.28366
f 39/128/6 35/129/6 40/130/6

vt 0.0463175 -1.28366
vn 8.85981e-016 0.86603 -0.499993
vt 0.0463175 -0.895428
vt 0.0088175 -1.28366
f 40/131/34 35/132/34 34/133/34

vt 0.0463175 -0.423876
vn 8.86003e-016 0.499992 -0.86603
v -0.0088175 1.15073 -0.80606
vt 0.0088175 -0.812103
f 40/134/35 34/102/35 41/135/35

vt 0.0088175 -0.812103
vt 0.0088175 -0.423876
vt -0.0286825 -0.812103
f 41/136/3 34/137/3 33/138/3

vt 0.0088175 0.213226
v 0.0286825 0.762497 -0.80606
vt -0.0286825 -0.175003
f 41/139/2 33/98/2 42/140/2

f 42/140/2 33/98/2 32/97/2

vt -0.0286825 0.845205
vn 8.86003e-016 -0.499992 -0.86603
vt -0.0661825 0.845205
v 0.0661824 0.426281 -0.61195
vt -0.0661824 0.456979
f 42/141/36 32/142/36 43/143/36

vt -0.0661824 0.456979
vn 4.43011e-016 -0.499992 -0.86603
vt -0.0661825 0.845205
vt -0.103682 0.456979
f 43/144/37 32/145/37 31/146/37

vt -0.0661824 1.30276
v 0.103682 0.232165 -0.27573
vt -0.103682 0.914529
f 43/147/23 31/92/23 44/148/23

vt -0.103682 0.914529
vt -0.103682 1.30276
f 44/149/26 31/150/26 30/89/26

vt -0.103682 1.46323
v 0.141182 0.232165 0.1125
vt -0.141182 1.075
f 44/151/25 30/86/25 45/152/25

f 45/152/25 30/86/25 29/88/25

vt 0.141182 -1.28365
vn 4.43014e-016 -0.866023 0.500004
vt 0.178682 -1.28365
v 0.178682 0.426278 0.44871
vt 0.178682 -0.895422
f 45/153/38 29/154/38 46/155/38

vt 0.73879 -0.511222
f 46/156/24 29/85/24 2/84/24

v 0.178682 0.762494 0.64283
vt 0.54467 -0.175006
f 47/157/24 46/156/24 2/84/24

v 0.141182 0.426278 0.44871
vt 0.141182 -0.812131
vn 4.42996e-016 -0.500011 0.866019
vt 0.178682 -0.812131
vt 0.178682 -0.423899
f 48/158/39 46/159/39 47/160/39

vt 0.141182 -0.895422
vn 4.43014e-016 -0.866023 0.500004
vt 0.178682 -0.895422
f 48/161/40 45/153/40 46/162/40

v 0.103682 0.232165 0.1125
vt 0.103682 -1.28365
vt 0.141182 -0.895422
f 49/163/38 45/153/38 48/164/38

vt -0.103682 1.075
f 49/165/25 44/151/25 45/152/25

v 0.0661824 0.232165 -0.27573
vt -0.0661824 1.46323
f 50/166/25 44/151/25 49/165/25

vt -0.0661824 0.914529
vn 0 -0.866026 -0.499999
vt -0.103682 0.914529
f 50/167/41 43/147/41 44/168/41

v 0.0286824 0.426281 -0.61195
vt -0.0286824 1.30276
vt -0.0661824 0.914529
f 51/169/23 43/147/23 50/170/23

vt -0.0286824 0.456979
vn 4.43002e-016 -0.499992 -0.86603
vt -0.0286825 0.845205
f 51/171/42 42/172/42 43/144/42

v -0.0088175 0.762497 -0.80606
vt 0.0088175 0.845205
vt -0.0286825 0.845205
vt -0.0286824 0.456979
f 52/173/21 42/174/21 51/175/21

vt 0.0088175 -0.175003
f 52/176/2 41/139/2 42/140/2

v -0.0463175 1.15073 -0.80606
vt 0.0463175 0.213226
f 53/177/2 41/139/2 52/176/2

vt 0.0463175 -0.812103
vt 0.0463175 -0.423876
f 53/178/3 40/179/3 41/136/3

v -0.0838175 1.48694 -0.61195
vt 0.0838175 -0.423876
vt 0.0463175 -0.423876
vt 0.0463175 -0.812103
f 54/180/20 40/181/20 53/182/20

vt 0.0838175 -1.28366
vt 0.0838175 -0.895428
vt 0.0463175 -1.28366
f 54/183/19 39/184/19 40/185/19

v -0.121318 1.68106 -0.27573
vt 0.121318 -0.895428
vn -8.85958e-016 0.86603 -0.499993
vt 0.0838175 -0.895428
vt 0.0838175 -1.28366
f 55/186/43 39/187/43 54/188/43

vt -0.121318 1.46323
f 55/189/7 38/126/7 39/127/7

vt -1.46323 0.743555
f 38/122/14 55/190/14 19/45/14

v -0.121318 1.48694 -0.61195
vt -1.79945 0.549442
f 55/190/14 56/191/14 19/45/14

vt 0.121318 -1.28366
vn 4.42979e-016 0.86603 -0.499993
vt 0.121318 -0.895428
f 56/192/44 55/193/44 54/183/44

vt 0.121318 -0.423876
vn 4.4299e-016 0.499992 -0.86603
v -0.0838175 1.15073 -0.80606
vt 0.0838175 -0.812103
f 56/194/45 54/180/45 57/195/45

vt 0.0838175 -0.812103
vt 0.0838175 -0.423876
vt 0.0463175 -0.812103
f 57/196/28 54/197/28 53/198/28

vt 0.0838175 0.213226
v -0.0463175 0.762497 -0.80606
vt 0.0463175 -0.175003
f 57/199/2 53/177/2 58/200/2

f 58/200/2 53/177/2 52/176/2

vt 0.0463175 0.845205
vn 0 -0.499992 -0.86603
vt 0.0088175 0.845205
v -0.0088176 0.426281 -0.61195
vt 0.0088176 0.456979
f 58/201/46 52/202/46 59/203/46

vt 0.0088176 0.456979
vn -4.43002e-016 -0.499992 -0.86603
vt 0.0088175 0.845205
vt -0.0286824 0.456979
f 59/204/47 52/205/47 51/206/47

vt 0.0088176 1.30276
v 0.0286824 0.232165 -0.27573
vt -0.0286824 0.914529
f 59/207/23 51/169/23 60/208/23

vt -0.0286824 0.914529
vt -0.0661824 0.914529
f 60/209/23 51/169/23 50/210/23

vt -0.0286824 1.46323
v 0.0661824 0.232165 0.1125
vt -0.0661824 1.075
f 60/211/25 50/166/25 61/212/25

f 61/212/25 50/166/25 49/165/25

vt 0.0661824 -1.28365
vn -8.86046e-016 -0.866023 0.500004
vt 0.103682 -1.28365
v 0.103682 0.426278 0.44871
vt 0.103682 -0.895422
f 61/213/48 49/214/48 62/215/48

vt 0.103682 -0.895422
f 62/216/38 49/163/38 48/164/38

vt 0.103682 -0.812131
v 0.141182 0.762494 0.64283
vt 0.141182 -0.423899
f 62/217/39 48/158/39 63/218/39

f 63/218/39 48/158/39 47/160/39

vt 0.141182 -0.175006
vt 0.178682 -0.175006
v 0.178682 1.15072 0.64283
vt 0.178682 0.213223
f 63/219/12 47/220/12 64/221/12

vt 0.54467 0.213223
f 64/222/24 47/157/24 2/84/24

v 0.178682 1.48694 0.44871
vt 0.73879 0.549439
f 65/223/24 64/222/24 2/84/24

v 0.141182 1.15072 0.64283
vt 0.141182 0.456996
vt 0.178682 0.456996
vt 0.178682 0.845228
f 66/224/15 64/225/15 65/226/15

vt 0.141182 0.213223
f 66/227/12 63/219/12 64/221/12

v 0.103682 0.762494 0.64283
vt 0.103682 -0.175006
f 67/228/12 63/219/12 66/227/12

vt 0.103682 -0.423899
vn -4.42996e-016 -0.500011 0.866019
vt 0.103682 -0.812131
vt 0.141182 -0.423899
f 67/229/49 62/230/49 63/231/49

v 0.0661824 0.426278 0.44871
vt 0.0661824 -0.812131
vn 4.43005e-016 -0.500011 0.866019
vt 0.103682 -0.423899
f 68/232/50 62/217/50 67/233/50

vt 0.0661824 -0.895422
vn 4.43023e-016 -0.866023 0.500004
vt 0.0661824 -1.28365
vt 0.103682 -0.895422
f 68/234/51 61/235/51 62/236/51

v 0.0286824 0.232165 0.1125
vt 0.0286824 -1.28365
vn -4.43014e-016 -0.866023 0.500004
vt 0.0661824 -1.28365
vt 0.0661824 -0.895422
f 69/237/52 61/238/52 68/239/52

vt -0.0286824 1.075
f 69/240/25 60/211/25 61/212/25

v -0.0088176 0.232165 -0.27573
vt 0.0088176 1.46323
f 70/241/25 60/211/25 69/240/25

vt 0.0088176 0.914529
f 70/242/23 59/207/23 60/209/23

v -0.0463175 0.426281 -0.61195
vt 0.0463175 1.30276
vn 4.42991e-016 -0.866026 -0.499999
vt 0.0088176 1.30276
vt 0.0088176 0.914529
f 71/243/53 59/244/53 70/245/53

vt 0.0463175 0.456979
vn -4.43004e-016 -0.499992 -0.86603
vt 0.0463175 0.845205
f 71/246/54 58/247/54 59/204/54

v -0.0838175 0.762497 -0.80606
vt 0.0838175 0.845205
vn 8.86003e-016 -0.499992 -0.86603
vt 0.0463175 0.845205
vt 0.0463175 0.456979
f 72/248/55 58/249/55 71/250/55

vt 0.0838175 -0.175003
f 72/251/2 57/199/2 58/200/2

vt 0.121318 0.213226
f 19/252/2 57/199/2 72/251/2

vt 0.121318 -0.812103
vn 0 0.499992 -0.86603
vt 0.121318 -0.423876
vt 0.0838175 -0.812103
f 19/253/56 56/254/56 57/255/56

v -0.121318 0.762497 -0.80606
vt 0.121318 -0.175003
f 73/256/2 19/252/2 72/251/2

vt -1.99356 -0.175003
v -0.121318 0.426281 -0.61195
vt -1.79945 -0.511219
f 73/257/14 74/258/14 19/45/14

vt 0.121318 0.456979
vn 8.8598e-016 -0.499992 -0.86603
vt 0.121318 0.845205
v -0.0838175 0.426281 -0.61195
vt 0.0838175 0.456979
f 74/259/57 73/260/57 75/261/57

vn 8.8598e-016 -0.499992 -0.86603
f 73/260/58 72/248/58 75/261/58

vt 0.0838175 0.456979
vt 0.0838175 0.845205
vt 0.0463175 0.456979
f 75/262/22 72/263/22 71/264/22

vt 0.0838175 1.30276
vn -8.85978e-016 -0.866026 -0.499999
vt 0.0463175 1.30276
v -0.0463175 0.232165 -0.27573
vt 0.0463175 0.914529
f 75/265/59 71/266/59 76/267/59

vt 0.0463175 0.914529
vn 4.42991e-016 -0.866026 -0.499999
vt 0.0088176 0.914529
f 76/268/60 71/243/60 70/269/60

vt 0.0463175 1.46323
v -0.0088176 0.232165 0.1125
vt 0.0088176 1.075
f 76/270/25 70/241/25 77/271/25

f 77/271/25 70/241/25 69/240/25

vt -0.0088176 -1.28365
v 0.0286824 0.426278 0.44871
vt 0.0286824 -0.895422
f 77/272/52 69/237/52 78/273/52

vt 0.0286824 -0.895422
vt 0.0286824 -1.28365
f 78/274/38 69/275/38 68/234/38

vt 0.0286824 -0.812131
v 0.0661824 0.762494 0.64283
vt 0.0661824 -0.423899
f 78/276/39 68/232/39 79/277/39

vt 0.0661824 -0.423899
vn 0 -0.500011 0.866019
vt 0.0661824 -0.812131
vt 0.103682 -0.423899
f 79/278/61 68/279/61 67/280/61

vt 0.0661824 -0.175006
v 0.103682 1.15072 0.64283
vt 0.103682 0.213223
f 79/281/12 67/228/12 80/282/12

f 80/282/12 67/228/12 66/227/12

vt 0.103682 0.456996
vn 4.42996e-016 0.500011 0.866019
vt 0.141182 0.456996
v 0.141182 1.48694 0.44871
vt 0.141182 0.845228
f 80/283/62 66/284/62 81/285/62

vt 0.141182 0.845228
vt 0.141182 0.456996
vt 0.178682 0.845228
f 81/286/16 66/287/16 65/288/16

vt 0.141182 0.914532
vn 4.43012e-016 0.86602 0.50001
vt 0.178682 0.914532
v 0.178682 1.68106 0.1125
vt 0.178682 1.30276
f 81/289/63 65/290/63 82/291/63

vt 1.075 0.743555
f 82/292/24 65/223/24 2/84/24

v 0.178682 1.68106 -0.27573
vt 1.46323 0.743555
f 83/293/24 82/292/24 2/84/24

v 0.141182 1.68106 0.1125
vt 0.141182 1.075
vt 0.178682 1.075
vt 0.178682 1.46323
f 84/294/7 82/295/7 83/296/7

vt 0.141182 1.30276
vt 0.141182 0.914532
vt 0.178682 1.30276
f 84/297/31 81/298/31 82/299/31

v 0.103682 1.48694 0.44871
vt 0.103682 0.914532
f 85/300/31 81/298/31 84/297/31

vt 0.103682 0.845228
vt 0.103682 0.456996
f 85/301/16 80/302/16 81/286/16

v 0.0661824 1.15072 0.64283
vt 0.0661824 0.456996
vn -4.43005e-016 0.500011 0.866019
vt 0.103682 0.456996
vt 0.103682 0.845228
f 86/303/64 80/304/64 85/305/64

vt 0.0661824 0.213223
f 86/306/12 79/281/12 80/282/12

v 0.0286824 0.762494 0.64283
vt 0.0286824 -0.175006
f 87/307/12 79/281/12 86/306/12

vt 0.0286824 -0.423899
vn 1.32899e-015 -0.500011 0.866019
vt 0.0286824 -0.812131
vt 0.0661824 -0.423899
f 87/308/65 78/309/65 79/310/65

v -0.0088176 0.426278 0.44871
vt -0.0088176 -0.812131
vt 0.0286824 -0.423899
f 88/311/39 78/276/39 87/312/39

vt -0.0088176 -0.895422
vn 0 -0.866023 0.500004
vt -0.0088176 -1.28365
vt 0.0286824 -0.895422
f 88/313/66 77/314/66 78/315/66

v -0.0463175 0.232165 0.1125
vt -0.0463175 -1.28365
vn 0 -0.866023 0.500004
f 89/316/67 77/314/67 88/313/67

vt 0.0463175 1.075
f 89/317/25 76/270/25 77/271/25

v -0.0838175 0.232165 -0.27573
vt 0.0838175 1.46323
f 90/318/25 76/270/25 89/317/25

vt 0.0838175 0.914529
vt 0.0463175 0.914529
f 90/319/26 75/265/26 76/320/26

vt 0.121318 1.30276
vn -4.42977e-016 -0.866026 -0.499999
vt 0.0838175 1.30276
vt 0.0838175 0.914529
f 74/321/68 75/322/68 90/323/68

v -0.121318 0.232165 -0.27573
vt 0.121318 0.914529
vn 8.85954e-016 -0.866026 -0.499999
vt 0.121318 1.30276
vt 0.0838175 0.914529
f 91/324/69 74/325/69 90/326/69

vt -1.46323 -0.705335
f 74/258/14 91/327/14 19/45/14

v -0.121318 0.232165 0.1125
vt -1.075 -0.705335
f 91/327/14 92/328/14 19/45/14

vt 0.121318 1.075
vt 0.121318 1.46323
v -0.0838175 0.232165 0.1125
vt 0.0838175 1.075
f 92/329/25 91/330/25 93/331/25

f 91/330/25 90/318/25 93/331/25

f 93/331/25 90/318/25 89/317/25

vt -0.0838175 -1.28365
vn 4.43014e-016 -0.866023 0.500004
vt -0.0463175 -1.28365
v -0.0463175 0.426278 0.44871
vt -0.0463175 -0.895422
f 93/332/70 89/333/70 94/334/70

vt -0.0463175 -0.895422
f 94/335/66 89/316/66 88/313/66

vt -0.0463175 -0.812131
vn 0 -0.500011 0.866019
vt -0.0088176 -0.812131
v -0.0088176 0.762494 0.64283
vt -0.0088176 -0.423899
f 94/336/71 88/337/71 95/338/71

vt -0.0088176 -0.423899
vn -4.42996e-016 -0.500011 0.866019
vt -0.0088176 -0.812131
vt 0.0286824 -0.423899
f 95/339/72 88/340/72 87/341/72

vt -0.0088176 -0.175006
v 0.0286824 1.15072 0.64283
vt 0.0286824 0.213223
f 95/342/12 87/307/12 96/343/12

f 96/343/12 87/307/12 86/306/12

vt 0.0286824 0.456996
vt 0.0661824 0.456996
v 0.0661824 1.48694 0.44871
vt 0.0661824 0.845228
f 96/344/15 86/345/15 97/346/15

vt 0.0661824 0.845228
vn -4.43005e-016 0.500011 0.866019
vt 0.103682 0.845228
f 97/347/73 86/303/73 85/348/73

vt 0.0661824 0.914532
vn 1.32906e-015 0.86602 0.50001
vt 0.103682 0.914532
v 0.103682 1.68106 0.1125
vt 0.103682 1.30276
f 97/349/74 85/350/74 98/351/74

vt 0.103682 1.30276
vn 0 0.86602 0.50001
vt 0.103682 0.914532
vt 0.141182 1.30276
f 98/352/75 85/353/75 84/354/75

vt 0.103682 1.075
v 0.141182 1.68106 -0.27573
vt 0.141182 1.46323
f 98/355/7 84/294/7 99/356/7

f 99/356/7 84/294/7 83/296/7

vt -0.141182 -0.895428
vn 4.42991e-016 0.86603 -0.499993
vt -0.178682 -0.895428
v 0.178682 1.48694 -0.61195
vt -0.178682 -1.28366
f 99/357/76 83/358/76 100/359/76

vt 1.79945 0.549442
f 100/360/24 83/293/24 2/84/24

v 0.178682 1.15073 -0.80606
vt 1.99356 0.213226
f 101/361/24 100/360/24 2/84/24

v 0.141182 1.48694 -0.61195
vt -0.141182 -0.423876
vn 4.43002e-016 0.499992 -0.86603
vt -0.178682 -0.423876
vt -0.178682 -0.812103
f 102/362/77 100/363/77 101/364/77

vt -0.141182 -1.28366
vt -0.141182 -0.895428
f 102/365/19 99/366/19 100/359/19

v 0.103682 1.68106 -0.27573
vt -0.103682 -0.895428
f 103/367/76 99/357/76 102/365/76

vt 0.103682 1.46323
f 103/368/7 98/355/7 99/356/7

v 0.0661825 1.68106 0.1125
vt 0.0661825 1.075
f 104/369/7 98/355/7 103/368/7

vt 0.0661825 1.30276
vn -4.43024e-016 0.86602 0.50001
vt 0.0661824 0.914532
vt 0.103682 1.30276
f 104/370/78 97/371/78 98/372/78

v 0.0286824 1.48694 0.44871
vt 0.0286824 0.914532
vn 0 0.86602 0.50001
vt 0.0661824 0.914532
vt 0.0661825 1.30276
f 105/373/79 97/374/79 104/375/79

vt 0.0286824 0.845228
vt 0.0286824 0.456996
vt 0.0661824 0.845228
f 105/376/16 96/377/16 97/378/16

v -0.0088176 1.15072 0.64283
vt -0.0088176 0.456996
vt 0.0286824 0.845228
f 106/379/15 96/344/15 105/380/15

vt -0.0088176 0.213223
f 106/381/12 95/342/12 96/343/12

v -0.0463175 0.762494 0.64283
vt -0.0463175 -0.175006
f 107/382/12 95/342/12 106/381/12

vt -0.0463175 -0.423899
vn 4.42998e-016 -0.500011 0.866019
vt -0.0463175 -0.812131
vt -0.0088176 -0.423899
f 107/383/80 94/384/80 95/385/80

v -0.0838175 0.426278 0.44871
vt -0.0838175 -0.812131
vn 4.42996e-016 -0.500011 0.866019
f 108/386/81 94/384/81 107/383/81

vt -0.0838175 -0.895422
f 108/387/40 93/332/40 94/334/40

vt -0.121318 -1.28365
vn -4.43002e-016 -0.866023 0.500004
vt -0.0838175 -1.28365
vt -0.0838175 -0.895422
f 92/388/82 93/389/82 108/390/82

vt -0.121318 -0.895422
vn 8.86004e-016 -0.866023 0.500004
vt -0.121318 -1.28365
vt -0.0838175 -0.895422
f 18/391/83 92/392/83 108/393/83

f 92/328/14 18/43/14 19/45/14

vt -0.121318 -0.812131
vn -4.42984e-016 -0.500011 0.866019
vt -0.0838175 -0.812131
vt -0.0838175 -0.423899
f 18/394/84 108/395/84 16/396/84

vt -0.0838175 -0.423899
f 16/397/39 108/386/39 107/383/39

f 16/37/12 107/382/12 14/38/12

f 14/38/12 107/382/12 106/381/12

vt -0.0463175 0.456996
vt -0.0088176 0.845228
f 14/398/15 106/379/15 12/399/15

vn 4.42996e-016 0.500011 0.866019
vt -0.0088176 0.456996
vt 0.0286824 0.845228
f 12/32/85 106/400/85 105/401/85

vt -0.0088176 0.914532
vt 0.0286824 0.914532
f 12/402/75 105/403/75 10/26/75

vt 0.0286824 0.914532
f 10/26/8 105/404/8 104/375/8

f 10/21/7 104/369/7 8/22/7

f 8/22/7 104/369/7 103/368/7

vt -0.0661825 -0.895428
vn 0 0.86603 -0.499993
vt -0.103682 -0.895428
vt -0.103682 -1.28366
f 8/405/86 103/406/86 6/407/86

vt -0.103682 -0.895428
f 6/16/19 103/408/19 102/365/19

vt -0.103682 -0.423876
vt -0.141182 -0.812103
f 6/409/77 102/362/77 4/410/77

vt -0.141182 -0.812103
vt -0.141182 -0.423876
vt -0.178682 -0.812103
f 4/411/28 102/412/28 101/413/28

vt -0.178682 0.213226
f 4/5/2 101/414/2 2/6/2

