# Alias OBJ Model File
# Exported from SketchUp, (c) 2000-2006 Google, Inc.
# File units = inches

mtllib roadblock_gray.mtl

g Mesh1 Mesh2_Mesh_4_1_skp107_1_Model Model

usemtl M_96_96_96
v -1.55374 -0.0463359 -0.386034
vt -0.386034 -0.0463359
vn -1 0 -0
v -1.55374 -0.0463361 0.386034
vt 0.386034 -0.0463361
v -1.55374 2.02601 0.255983
vt 0.255983 2.02601
f 1/1/1 2/2/1 3/3/1

vt 1.55374 -0.386034
vn -1.32695e-023 -1 -2.59045e-007
vt 1.55374 0.386034
v 1.61476 -0.0463359 -0.386034
vt -1.61476 0.386034
f 2/4/2 1/5/2 4/6/2

vt -1.61476 -0.0671856
vn 3.85683e-018 0.0541863 -0.998531
vt 1.55374 -0.0671856
v -1.55374 2.02601 -0.273576
vt 1.55374 2.00821
f 4/7/3 1/8/3 5/9/3

vt -0.273576 2.02601
f 1/1/1 3/3/1 5/10/1

v 1.61476 2.02601 0.255983
vt 1.61476 -0.255983
vn 0 1 -0
vt -1.55374 0.273576
vt -1.55374 -0.255983
f 6/11/4 5/12/4 3/13/4

v 1.61476 2.02601 -0.273576
vt 1.61476 0.273576
f 6/11/4 7/14/4 5/12/4

vt 0.273576 2.02601
vn 1 0 -0
vt -0.255983 2.02601
v 1.61476 -0.0463361 0.386034
vt -0.386034 -0.0463361
f 7/15/5 6/16/5 8/17/5

vt -1.55374 -0.0704233
vn 0 0.0626322 0.998037
vt 1.61476 -0.0704233
vt 1.61476 2.006
f 2/18/6 8/19/6 6/20/6

vn -1.32695e-023 -1 -2.59045e-007
vt -1.61476 -0.386034
f 2/4/7 4/6/7 8/21/7

vt 0.386034 -0.0463359
f 7/15/5 8/17/5 4/22/5

vt -1.61476 -0.0671856
vn 3.85683e-018 0.0541863 -0.998531
vt -1.61476 2.00821
f 4/23/8 5/9/8 7/24/8

vn 3.85493e-018 0.0626322 0.998037
vt -1.55374 2.006
f 2/18/9 6/20/9 3/25/9

